<?xml version="1.0" standalone="no"?>
<!DOCTYPE svg PUBLIC "-//W3C//DTD SVG 20010904//EN"
 "http://www.w3.org/TR/2001/REC-SVG-20010904/DTD/svg10.dtd">
<svg version="1.0" xmlns="http://www.w3.org/2000/svg"
 width="300.000000pt" height="300.000000pt" viewBox="0 0 300.000000 300.000000"
 preserveAspectRatio="xMidYMid meet">
<metadata>
Created by potrace 1.11, written by Peter Selinger 2001-2013
</metadata>
<g transform="translate(0.000000,300.000000) scale(0.100000,-0.100000)"
fill="#000000" stroke="none">
<path d="M210 1670 l0 -600 225 0 225 0 0 65 0 65 -145 0 -145 0 0 200 0 200
110 0 110 0 0 70 0 70 -110 0 -110 0 0 200 0 200 145 0 145 0 0 65 0 65 -225
0 -225 0 0 -600z"/>
<path d="M2200 2155 l0 -65 -60 0 -60 0 0 -140 0 -140 60 0 60 0 0 -65 0 -65
50 0 50 0 0 -65 0 -65 55 0 55 0 0 -65 0 -65 60 0 60 0 0 -135 0 -135 -105 0
-105 0 0 65 0 65 -120 0 -120 0 0 -65 0 -65 60 0 60 0 0 -65 0 -65 220 0 220
0 0 65 0 65 60 0 60 0 0 135 0 135 -60 0 -60 0 0 65 0 65 -50 0 -50 0 0 65 0
65 -50 0 -50 0 0 65 0 65 -60 0 -60 0 0 140 0 140 105 0 105 0 0 -65 0 -65
115 0 115 0 0 65 0 65 -60 0 -60 0 0 65 0 65 -220 0 -220 0 0 -65z"/>
<path d="M1060 1730 l0 -330 40 0 40 0 0 -165 0 -165 100 0 100 0 0 165 0 165
35 0 35 0 0 -165 0 -165 95 0 95 0 0 165 0 165 45 0 45 0 0 330 0 330 -100 0
-100 0 0 -330 0 -330 -35 0 -35 0 0 165 0 165 -50 0 -50 0 0 -165 0 -165 -35
0 -35 0 0 330 0 330 -95 0 -95 0 0 -330z"/>
</g>
</svg>
